<svg width="41" height="41" viewBox="0 0 41 41" fill="none" xmlns="http://www.w3.org/2000/svg">
<path d="M18.0576 7.09375C18.0576 8.70991 17.4156 10.2599 16.2728 11.4027C15.13 12.5455 13.58 13.1875 11.9639 13.1875C10.3477 13.1875 8.79774 12.5455 7.65494 11.4027C6.51214 10.2599 5.87013 8.70991 5.87013 7.09375C5.87013 5.47759 6.51214 3.92762 7.65494 2.78482C8.79774 1.64202 10.3477 1 11.9639 1C13.58 1 15.13 1.64202 16.2728 2.78482C17.4156 3.92762 18.0576 5.47759 18.0576 7.09375V7.09375ZM28.3561 16.9729C28.1275 16.8584 27.8687 16.8187 27.6163 16.8594C27.3639 16.9001 27.1307 17.0191 26.9496 17.1996L17.9065 28.6802L11.4228 21.9235C11.1887 21.7676 10.9079 21.6975 10.628 21.7251C10.3481 21.7526 10.0863 21.8761 9.88712 22.0746L1 32.6875V37.5625C1 38.209 1.25681 38.8289 1.71393 39.2861C2.17105 39.7432 2.79103 40 3.4375 40H37.5625C37.8826 40 38.1996 39.9369 38.4953 39.8145C38.791 39.692 39.0597 39.5124 39.2861 39.2861C39.5124 39.0597 39.692 38.791 39.8145 38.4953C39.937 38.1996 40 37.8826 40 37.5625V26.5937L28.3561 16.9729V16.9729Z" fill="#4ED8E9"/>
</svg>
