<svg width="72" height="72" viewBox="0 0 72 72" fill="none" xmlns="http://www.w3.org/2000/svg">
<circle cx="36" cy="36" r="36" fill="#4ED8E9"/>
<path d="M43.7849 32.5972C42.238 27.4146 38.7604 23.9326 38.7604 12.5625H31.7951C31.7951 24.5523 28.3923 27.4146 26.7677 32.5972C25.839 37.084 29.7077 38.4756 30.7126 37.8575C32.5685 36.8526 38.3708 36.775 39.84 37.7798C40.8464 38.4756 44.7136 37.0064 43.7849 32.5972Z" fill="#EFFDFF"/>
<path d="M28.7791 43.582C30.0169 47.6836 32.7239 50.1577 32.7239 59.439H38.2156C38.2156 50.1563 40.9227 47.6807 42.1605 43.582C42.8563 40.1016 39.0667 39.4043 39.0667 39.4043C36.7594 40.1635 34.2738 40.1906 31.9505 39.4819C31.9505 39.4819 28.0833 40.1001 28.7791 43.582Z" fill="#EFFDFF"/>
<path d="M35.2754 39.249C36.7705 39.249 37.9824 38.9027 37.9824 38.4756C37.9824 38.0484 36.7705 37.7021 35.2754 37.7021C33.7803 37.7021 32.5684 38.0484 32.5684 38.4756C32.5684 38.9027 33.7803 39.249 35.2754 39.249Z" fill="#EFFDFF"/>
<path d="M16.02 39.8843C15.5578 39.8843 15.1831 39.5096 15.1831 39.0473V39.0473C15.1831 38.5851 15.5578 38.2104 16.02 38.2104L19.3677 38.2104C19.83 38.2104 20.2047 38.5851 20.2047 39.0474V39.0474C20.2047 39.5096 19.83 39.8843 19.3677 39.8843L16.02 39.8843Z" fill="white"/>
<path d="M18.1422 46.1886C17.8153 45.8617 17.8153 45.3317 18.1422 45.0048L20.5097 42.6372C20.8366 42.3104 21.3666 42.3104 21.6935 42.6372V42.6372C22.0204 42.9641 22.0204 43.4941 21.6935 43.821L19.326 46.1886C18.9991 46.5155 18.4691 46.5155 18.1422 46.1886V46.1886Z" fill="white"/>
<path d="M18.1422 33.088C17.8153 32.7611 17.8153 32.2311 18.1422 31.9042V31.9042C18.4691 31.5773 18.9991 31.5773 19.326 31.9042L21.6935 34.2718C22.0204 34.5986 22.0204 35.1286 21.6935 35.4555V35.4555C21.3666 35.7824 20.8366 35.7824 20.5097 35.4555L18.1422 33.088Z" fill="white"/>
</svg>
