<svg width="12" height="12" viewBox="0 0 12 12" fill="none" xmlns="http://www.w3.org/2000/svg">
<circle cx="5.72839" cy="5.72839" r="5.22839" fill="#27C1CD" stroke="white"/>
<path d="M6.04342 5.7236L7.82423 3.94755C7.85943 3.90657 7.87781 3.85385 7.87573 3.79993C7.87364 3.74601 7.85123 3.69486 7.81297 3.65671C7.77471 3.61855 7.72343 3.5962 7.66936 3.59412C7.6153 3.59203 7.56244 3.61037 7.52134 3.64547L5.74053 5.42152L3.95971 3.64333C3.91926 3.60299 3.8644 3.58032 3.8072 3.58032C3.74999 3.58032 3.69513 3.60299 3.65468 3.64333C3.61423 3.68367 3.5915 3.73839 3.5915 3.79544C3.5915 3.85249 3.61423 3.90721 3.65468 3.94755L5.43764 5.7236L3.65468 7.49965C3.63219 7.51886 3.61393 7.54249 3.60103 7.56907C3.58814 7.59565 3.58089 7.6246 3.57975 7.65411C3.57861 7.68361 3.58359 7.71304 3.59439 7.74053C3.60519 7.76802 3.62157 7.79299 3.64251 7.81387C3.66344 7.83475 3.68848 7.85109 3.71604 7.86186C3.74361 7.87263 3.77311 7.8776 3.8027 7.87646C3.83228 7.87532 3.86131 7.86809 3.88796 7.85523C3.91461 7.84237 3.93831 7.82416 3.95757 7.80173L5.74053 6.02568L7.52134 7.80173C7.56244 7.83683 7.6153 7.85517 7.66936 7.85309C7.72343 7.85101 7.77471 7.82865 7.81297 7.7905C7.85123 7.75234 7.87364 7.7012 7.87573 7.64728C7.87781 7.59336 7.85943 7.54064 7.82423 7.49965L6.04342 5.7236Z" fill="white"/>
</svg>
