<svg width="72" height="72" viewBox="0 0 72 72" fill="none" xmlns="http://www.w3.org/2000/svg">
<circle cx="36" cy="36" r="36" fill="#4ED8E9"/>
<g clip-path="url(#clip0_38_9386)">
<mask id="mask0_38_9386" style="mask-type:alpha" maskUnits="userSpaceOnUse" x="17" y="18" width="37" height="40">
<path d="M37.3544 18.1282L35.3754 18.243C31.4438 18.7119 27.8174 20.5615 25.1653 23.4506C22.5131 26.3397 21.0141 30.0734 20.9447 33.963L17.1 43.1021C17.0178 43.3084 16.9856 43.5306 17.0059 43.7513C17.0262 43.9719 17.0984 44.1849 17.2169 44.3734C17.3353 44.5619 17.4968 44.7208 17.6885 44.8376C17.8802 44.9543 18.0969 45.0256 18.3215 45.046L21.4636 45.3312L22.3947 52.8199C22.4158 53.0136 22.4771 53.201 22.5746 53.3706C22.6722 53.5401 22.804 53.6883 22.962 53.8061C23.12 53.9238 23.3008 54.0086 23.4933 54.0552C23.6859 54.1018 23.8861 54.1092 24.0817 54.0771L28.9709 53.3346V55.7932C28.9709 56.1722 29.1242 56.5358 29.3971 56.8038C29.67 57.0718 30.0401 57.2224 30.426 57.2224H46.4303C46.8162 57.2224 47.1863 57.0718 47.4592 56.8038C47.732 56.5358 47.8853 56.1722 47.8853 55.7932V46.6456C50.4836 44.5247 52.3522 41.6678 53.2359 38.4649C54.1197 35.262 53.9756 31.8693 52.8233 28.7499C51.6709 25.6305 49.5666 22.9364 46.7975 21.0354C44.0283 19.1344 40.7294 18.1191 37.351 18.1282H37.3544Z" fill="#E16054"/>
</mask>
<g mask="url(#mask0_38_9386)">
<path d="M37.3544 18.1282L35.3754 18.243C31.4438 18.7119 27.8174 20.5615 25.1653 23.4506C22.5131 26.3397 21.0141 30.0734 20.9447 33.963L17.1 43.1021C17.0178 43.3084 16.9856 43.5306 17.0059 43.7513C17.0262 43.9719 17.0984 44.1849 17.2169 44.3734C17.3353 44.5619 17.4968 44.7208 17.6885 44.8376C17.8802 44.9543 18.0969 45.0256 18.3215 45.046L21.4636 45.3312L22.3947 52.8199C22.4158 53.0136 22.4771 53.201 22.5746 53.3706C22.6722 53.5401 22.804 53.6883 22.962 53.8061C23.12 53.9238 23.3008 54.0086 23.4933 54.0552C23.6859 54.1018 23.8861 54.1092 24.0817 54.0771L28.9709 53.3346V55.7932C28.9709 56.1722 29.1242 56.5358 29.3971 56.8038C29.67 57.0718 30.0401 57.2224 30.426 57.2224H46.4303C46.8162 57.2224 47.1863 57.0718 47.4592 56.8038C47.732 56.5358 47.8853 56.1722 47.8853 55.7932V46.6456C50.4836 44.5247 52.3522 41.6678 53.2359 38.4649C54.1197 35.262 53.9756 31.8693 52.8233 28.7499C51.6709 25.6305 49.5666 22.9364 46.7975 21.0354C44.0283 19.1344 40.7294 18.1191 37.351 18.1282H37.3544Z" fill="#EFFDFF"/>
<path fill-rule="evenodd" clip-rule="evenodd" d="M42.7307 58.6229V48.444C45.7625 46.0638 47.9428 42.8577 48.974 39.2633C50.0052 35.6689 49.8371 31.8615 48.4925 28.3608C47.1479 24.8601 44.6925 21.8366 41.4614 19.7033C39.5596 18.4476 37.4437 17.5363 35.2207 17.0011L36.2334 16.9471H36.2294C40.1445 16.9374 43.9676 18.0197 47.1767 20.0462C50.3857 22.0727 52.8244 24.9448 54.1598 28.2702C55.4952 31.5956 55.6622 35.2124 54.6381 38.6267C53.6139 42.0411 51.4485 45.0867 48.4374 47.3477V57.0993C48.4374 57.5034 48.2597 57.891 47.9435 58.1767C47.6273 58.4624 47.1984 58.6229 46.7511 58.6229H42.7307Z" fill="#F5FEFF"/>
</g>
</g>
<defs>
<clipPath id="clip0_38_9386">
<rect width="50" height="50" fill="white" transform="translate(8 11)"/>
</clipPath>
</defs>
</svg>
