<svg width="16" height="16" viewBox="0 0 16 16" fill="none" xmlns="http://www.w3.org/2000/svg">
<path d="M4.3096 8.95526L9.9252 3.20347C9.98536 3.14185 10.4667 2.64884 11.2288 2.38179C12.2918 2.03257 13.3748 2.32016 14.2372 3.20347C15.1196 4.08678 15.3804 5.17551 15.0394 6.26424C14.7987 7.04484 14.2973 7.57894 14.2372 7.64056L8.20041 13.8237C7.15751 14.8919 4.55027 16.2682 2.14358 13.8237C-0.243047 11.3792 1.12074 8.68821 2.14358 7.64056L8.62158 0.984928C8.86225 0.738423 9.2433 0.738423 9.48397 0.984928C9.72464 1.23143 9.72464 1.62173 9.48397 1.86824L3.02603 8.52387C2.92576 8.60604 0.900129 10.763 3.02603 12.9404C5.09177 15.0563 7.1174 13.1664 7.33801 12.9404L13.3748 6.73671C13.3748 6.73671 13.7157 6.3875 13.8762 5.89449C14.0767 5.23714 13.9363 4.66196 13.3748 4.08678C12.1714 2.85426 11.0082 3.88136 10.7876 4.08678L5.17199 9.81802C4.97144 10.0234 4.83105 10.3727 5.17199 10.7219C5.51294 11.0711 5.83383 10.9068 6.03439 10.7219L9.9252 6.73671C10.1659 6.51075 10.567 6.51075 10.7876 6.73671C11.0283 6.98322 11.0283 7.39406 10.7876 7.64056L6.89679 11.6052C6.35528 12.1393 5.25222 12.5707 4.3096 11.6052C3.34693 10.6397 3.76809 9.48935 4.3096 8.95526Z" fill="white"/>
</svg>
