<svg width="72" height="72" viewBox="0 0 72 72" fill="none" xmlns="http://www.w3.org/2000/svg">
<circle cx="36" cy="36" r="36" fill="#4ED8E9"/>
<path d="M53.2782 43.7766C51.8648 46.21 49.8454 48.2362 47.4167 49.6578C44.988 51.0794 42.2327 51.8481 39.4188 51.8891C32.4568 51.8891 32.1046 46.5312 27.652 46.2214C21.8183 45.8121 19.4288 51.3839 20.0152 55.5969C20.1203 56.3574 20.2786 57.1097 20.489 57.8481C20.5042 57.9004 20.507 57.9555 20.4972 58.009C20.4873 58.0625 20.4652 58.1131 20.4324 58.1565C20.3997 58.2 20.3572 58.2353 20.3085 58.2595C20.2598 58.2837 20.206 58.2963 20.1516 58.2961H16.0751C15.9975 58.2962 15.9221 58.2705 15.8607 58.2231C15.7993 58.1758 15.7554 58.1093 15.7358 58.0343C14.9587 55.1706 15.0595 52.1394 16.0253 49.3337C16.938 46.9494 18.5174 44.878 20.5751 43.3666C22.6327 41.8553 25.0817 40.9678 27.6298 40.81C30.0507 40.7362 32.7923 40.9298 34.5716 39.2871C35.6332 38.144 36.2199 36.6396 36.2125 35.0796C36.3065 33.5382 36.1443 31.9821 36.3766 30.4573C36.5893 29.1488 37.0845 27.9023 37.8276 26.8045C38.5708 25.7066 39.5441 24.7838 40.6799 24.1001C40.7294 24.0714 40.77 24.0296 40.7972 23.9793C40.8245 23.929 40.8374 23.8722 40.8346 23.8151C40.8317 23.758 40.8132 23.7027 40.781 23.6554C40.7489 23.6082 40.7043 23.5706 40.6522 23.547C38.6401 22.611 37.015 21.0061 36.0539 19.0058C35.2743 17.3473 34.9864 15.5 35.2242 13.6829C35.235 13.598 35.2763 13.5199 35.3404 13.4633C35.4046 13.4066 35.4871 13.3752 35.5727 13.375H39.8871C39.9347 13.3749 39.9818 13.3846 40.0256 13.4033C40.0693 13.4221 40.1088 13.4495 40.1416 13.484C40.1743 13.5185 40.1997 13.5594 40.2162 13.604C40.2327 13.6487 40.2399 13.6962 40.2374 13.7438C40.158 14.6869 40.2968 15.6356 40.6431 16.5165C40.9894 17.3974 41.5338 18.1867 42.2342 18.8233C45.057 21.2515 53.7226 20.1305 55.9167 29.7622C56.7358 34.5985 55.7994 39.5683 53.2764 43.7747L53.2782 43.7766Z" fill="white"/>
<path d="M25.6773 46.3155C25.4342 46.2636 25.1878 46.2291 24.9398 46.2122C19.1062 45.8029 16.7167 51.3747 17.303 55.5877C17.4292 56.5032 17.6333 57.4062 17.9133 58.2869H20.1534C20.2079 58.2871 20.2616 58.2746 20.3103 58.2503C20.3591 58.2261 20.4015 58.1909 20.4343 58.1474C20.467 58.1039 20.4892 58.0534 20.499 57.9998C20.5088 57.9463 20.506 57.8912 20.4908 57.8389C20.2805 57.1005 20.1221 56.3482 20.017 55.5877C19.5007 51.8965 21.2818 47.1396 25.6773 46.3155Z" fill="#EFFDFF"/>
<path d="M55.9184 29.7604C53.7244 20.1287 45.0588 21.2515 42.236 18.8214C41.5359 18.185 40.9916 17.396 40.6453 16.5155C40.2991 15.635 40.1601 14.6866 40.2392 13.7438C40.2417 13.6962 40.2345 13.6487 40.218 13.604C40.2016 13.5594 40.1762 13.5185 40.1434 13.484C40.1106 13.4495 40.0711 13.4221 40.0274 13.4033C39.9836 13.3846 39.9365 13.3749 39.8889 13.375H37.5529C37.4199 14.3744 37.5297 15.3911 37.8727 16.3391C38.2158 17.2871 38.7821 18.1386 39.5238 18.8214C42.3466 21.2497 51.0123 20.1287 53.2063 29.7604C54.0255 34.5966 53.0891 39.5664 50.5661 43.7729C49.2675 45.9941 47.4648 47.8789 45.3036 49.275C43.1424 50.6711 40.6832 51.5394 38.1245 51.8098C38.5531 51.8556 38.9839 51.8784 39.4151 51.878C42.2289 51.837 44.9843 51.0683 47.413 49.6467C49.8417 48.2251 51.8611 46.199 53.2745 43.7655C55.7975 39.559 56.734 34.5893 55.9148 29.753L55.9184 29.7604Z" fill="#EFFDFF"/>
</svg>
