<svg width="86" height="81" viewBox="0 0 86 81" fill="none" xmlns="http://www.w3.org/2000/svg">
<path d="M1.93335 30.9788C3.8072 28.5445 6.70453 26.8918 8.12399 24.0934C9.82257 20.7454 9.46554 16.7926 10.9845 13.3702C13.2284 8.31417 17.2898 4.02063 22.3769 1.66301C24.8285 0.525736 27.5203 -0.164297 30.145 0.0337678C34.1913 0.33832 37.6815 2.71084 40.41 5.54126C44.4715 9.756 47.345 15.7406 52.2201 19.1162C54.9097 20.9797 58.071 19.0033 60.9229 18.375C64.1469 17.6658 67.4965 17.832 70.5756 18.6945C76.2469 20.2833 81.1306 24.2829 83.5735 29.554C86.1809 35.1829 85.8109 42.9649 80.9164 47.8058C78.653 50.0442 75.5805 51.5414 73.9013 54.2227C71.7916 57.5877 71.545 62.1368 70.9564 65.8788C70.3073 70.0104 68.5113 74.0378 65.8152 77.3793C65.7849 77.4177 65.7546 77.456 65.7222 77.4922C61.0354 83.2254 52.1347 80.3673 45.3923 77.4922C45.3923 77.4922 31.9518 76.1675 31.9496 76.1675C17.3937 69.9615 6.34318 59.9602 1.03971 45.4653C-0.109273 42.3282 -0.524723 35.6408 0.938006 32.5804C1.21064 32.0053 3.20288 29.554 1.93335 30.9788Z" fill="#4ED8E9" fill-opacity="0.2"/>
<path d="M76.5008 25.5373L73.7305 27.2072" stroke="#4ED8E9" stroke-width="2.33333" stroke-linecap="round" stroke-linejoin="round"/>
<path d="M74.3159 24.926L75.9154 27.8184" stroke="#4ED8E9" stroke-width="2.33333" stroke-linecap="round" stroke-linejoin="round"/>
<path d="M21.013 10.2157L18.2427 11.8856" stroke="#4ED8E9" stroke-width="2.33333" stroke-linecap="round" stroke-linejoin="round"/>
<path d="M18.8281 9.60449L20.4276 12.4969" stroke="#4ED8E9" stroke-width="2.33333" stroke-linecap="round" stroke-linejoin="round"/>
<path d="M5.5555 50.8803L2.78517 52.5502" stroke="#4ED8E9" stroke-width="2.33333" stroke-linecap="round" stroke-linejoin="round"/>
<path d="M3.37061 50.269L4.97006 53.1614" stroke="#4ED8E9" stroke-width="2.33333" stroke-linecap="round" stroke-linejoin="round"/>
<ellipse cx="47.8739" cy="72.1876" rx="31.4413" ry="2.59778" fill="#F5FEFF"/>
<path d="M69.6527 36.2378H52.6597C52.174 36.2378 51.6902 36.2983 51.2195 36.4178L42.1443 38.7225C41.6736 38.8421 41.1899 38.9025 40.7042 38.9025H35.9764H30.5173H26.1852C22.6806 38.9025 19.9622 41.9626 20.3752 45.4427L22.9569 67.1986C23.3062 70.1425 25.8023 72.3599 28.7669 72.3599H65.4348C68.2819 72.3599 70.7156 70.3105 71.2002 67.505L75.4181 43.0843C76.0358 39.5079 73.2821 36.2378 69.6527 36.2378Z" fill="#D4F6FB"/>
<path d="M66.2562 62.2935H59.3628C57.9996 62.2935 56.8171 63.235 56.5118 64.5635L56.1551 66.1148C55.7339 67.9472 57.1259 69.6955 59.0062 69.6955H65.959C67.3624 69.6955 68.5681 68.6989 68.8321 67.3205L69.1293 65.7692C69.4748 63.9656 68.0925 62.2935 66.2562 62.2935Z" fill="#C8D0FE"/>
<path d="M43.2859 17.5545L36.8242 26.2283C35.5667 27.9164 36.7801 30.3164 38.8851 30.3164C40.2914 30.3164 41.4357 31.4564 41.4357 32.8627V39.0777C41.4357 41.2704 43.2133 43.0479 45.406 43.0479C47.5987 43.0479 49.3762 41.2704 49.3762 39.0777V32.8627C49.3762 31.4564 50.537 30.3164 51.9433 30.3164C54.061 30.3164 55.3372 27.926 54.1118 26.1988L48.0177 17.6094C46.8682 15.9892 44.4727 15.9614 43.2859 17.5545Z" fill="#EBFDFF"/>
<path d="M41.223 20.3236L42.7119 18.325L43.2859 17.5545C44.4727 15.9614 46.8682 15.9892 48.0177 17.6094L54.8178 27.1939C55.7471 28.5037 54.8106 30.3164 53.2047 30.3164V30.3164M38.2453 24.3207L36.7565 26.3192V26.3192C35.5269 27.9698 36.7049 30.3164 38.7631 30.3164H38.8894C40.2957 30.3164 41.4357 31.4564 41.4357 32.8627V39.0777C41.4357 41.2704 43.2133 43.0479 45.406 43.0479V43.0479C47.5987 43.0479 49.3762 41.2704 49.3762 39.0777V36.6821V33.4993" stroke="#4ED8E9" stroke-width="2.92537" stroke-linecap="round" stroke-linejoin="round"/>
<path d="M29.0172 49.6091L25.2965 65.1472C24.4158 68.8255 27.2041 72.3604 30.9865 72.3604H65.4348C68.2818 72.3604 70.7156 70.311 71.2002 67.5054L75.4181 43.0848C76.0358 39.5084 73.282 36.2383 69.6527 36.2383H55.0279C53.2483 36.2383 51.5654 37.0483 50.4552 38.4392L46.8789 42.9199C45.7687 44.3108 44.0858 45.1208 42.3061 45.1208H34.7071C32.0006 45.1208 29.6474 46.977 29.0172 49.6091Z" fill="white" stroke="white" stroke-width="1.46269" stroke-linejoin="round"/>
<path d="M43.9887 45.1206H34.708C32.0015 45.1206 29.6483 46.9769 29.0181 49.6089L26.8315 58.7404" stroke="#4ED8E9" stroke-width="2.92537" stroke-linecap="round"/>
<path d="M51.9283 36.2383H69.6527C73.2821 36.2383 76.0358 39.5084 75.4181 43.0848L71.2002 67.5054C70.7156 70.311 68.2819 72.3604 65.4348 72.3604H28.7669C25.8023 72.3604 23.3062 70.143 22.9569 67.1991L20.3752 45.4432C19.9622 41.9631 22.6806 38.903 26.1852 38.903H30.5173H35.9764H38.706" stroke="#4ED8E9" stroke-width="2.92537" stroke-linecap="round" stroke-linejoin="round"/>
</svg>
